<mxfile host="Electron" agent="Mozilla/5.0 (Windows NT 10.0; Win64; x64) AppleWebKit/537.36 (KHTML, like Gecko) draw.io/26.2.2 Chrome/134.0.6998.178 Electron/35.1.2 Safari/537.36" version="26.2.2">
  <diagram name="Page-1" id="0783ab3e-0a74-02c8-0abd-f7b4e66b4bec">
    <mxGraphModel dx="1285" dy="873" grid="1" gridSize="10" guides="1" tooltips="1" connect="1" arrows="1" fold="1" page="1" pageScale="1" pageWidth="850" pageHeight="1100" background="none" math="0" shadow="0">
      <root>
        <mxCell id="0" />
        <mxCell id="1" parent="0" />
        <mxCell id="1c1d494c118603dd-1" value="Report" style="swimlane;html=1;childLayout=stackLayout;startSize=20;rounded=0;shadow=0;comic=0;labelBackgroundColor=none;strokeWidth=1;fontFamily=Verdana;fontSize=12;align=center;" parent="1" vertex="1">
          <mxGeometry x="60" y="80" width="1000" height="730" as="geometry" />
        </mxCell>
        <mxCell id="1c1d494c118603dd-2" value="Customer" style="swimlane;html=1;startSize=20;" parent="1c1d494c118603dd-1" vertex="1">
          <mxGeometry y="20" width="250" height="710" as="geometry" />
        </mxCell>
        <mxCell id="q1Srg3AbugSp6zMwvo-e-56" value="" style="edgeStyle=orthogonalEdgeStyle;rounded=0;orthogonalLoop=1;jettySize=auto;html=1;" edge="1" parent="1c1d494c118603dd-2" source="60571a20871a0731-4" target="q1Srg3AbugSp6zMwvo-e-55">
          <mxGeometry relative="1" as="geometry" />
        </mxCell>
        <mxCell id="60571a20871a0731-4" value="" style="ellipse;whiteSpace=wrap;html=1;rounded=0;shadow=0;comic=0;labelBackgroundColor=none;strokeWidth=1;fillColor=#000000;fontFamily=Verdana;fontSize=12;align=center;" parent="1c1d494c118603dd-2" vertex="1">
          <mxGeometry x="10" y="40" width="20" height="20" as="geometry" />
        </mxCell>
        <mxCell id="q1Srg3AbugSp6zMwvo-e-55" value="Chọn loại vấn đề" style="rounded=1;whiteSpace=wrap;html=1;fillColor=#FFFFC0;strokeColor=#FF0000;" vertex="1" parent="1c1d494c118603dd-2">
          <mxGeometry x="70" y="30" width="95" height="40" as="geometry" />
        </mxCell>
        <mxCell id="q1Srg3AbugSp6zMwvo-e-69" value="Tải ảnh/tài liệu." style="rounded=1;whiteSpace=wrap;html=1;strokeColor=#FF0000;fillColor=#FFFFC0;" vertex="1" parent="1c1d494c118603dd-2">
          <mxGeometry x="60" y="200" width="95" height="40" as="geometry" />
        </mxCell>
        <mxCell id="q1Srg3AbugSp6zMwvo-e-73" value="Gửi tài liệu" style="rounded=1;whiteSpace=wrap;html=1;strokeColor=#FF0000;fillColor=#FFFFC0;" vertex="1" parent="1c1d494c118603dd-2">
          <mxGeometry x="70" y="305" width="95" height="40" as="geometry" />
        </mxCell>
        <mxCell id="q1Srg3AbugSp6zMwvo-e-59" value="Điền mô tả chi tiết." style="rounded=1;whiteSpace=wrap;html=1;strokeColor=#FF0000;fillColor=#FFFFC0;" vertex="1" parent="1c1d494c118603dd-2">
          <mxGeometry x="70" y="120" width="95" height="40" as="geometry" />
        </mxCell>
        <mxCell id="1c1d494c118603dd-3" value="System" style="swimlane;html=1;startSize=20;" parent="1c1d494c118603dd-1" vertex="1">
          <mxGeometry x="250" y="20" width="250" height="710" as="geometry" />
        </mxCell>
        <mxCell id="q1Srg3AbugSp6zMwvo-e-57" value="Hiển thị danh sách loại vấn đề." style="rounded=1;whiteSpace=wrap;html=1;fillColor=#FFFFC0;strokeColor=#FF0000;" vertex="1" parent="1c1d494c118603dd-3">
          <mxGeometry x="50" y="30" width="95" height="40" as="geometry" />
        </mxCell>
        <mxCell id="q1Srg3AbugSp6zMwvo-e-68" value="" style="edgeStyle=orthogonalEdgeStyle;rounded=0;orthogonalLoop=1;jettySize=auto;html=1;" edge="1" parent="1c1d494c118603dd-3" source="q1Srg3AbugSp6zMwvo-e-65" target="q1Srg3AbugSp6zMwvo-e-67">
          <mxGeometry relative="1" as="geometry">
            <Array as="points">
              <mxPoint x="193" y="170" />
              <mxPoint x="125" y="170" />
            </Array>
          </mxGeometry>
        </mxCell>
        <mxCell id="q1Srg3AbugSp6zMwvo-e-67" value="" style="rhombus;whiteSpace=wrap;html=1;rounded=1;" vertex="1" parent="1c1d494c118603dd-3">
          <mxGeometry x="113.11999999999999" y="210" width="23.75" height="20" as="geometry" />
        </mxCell>
        <mxCell id="q1Srg3AbugSp6zMwvo-e-71" value="Lưu tài liệu" style="rounded=1;whiteSpace=wrap;html=1;strokeColor=#FF0000;fillColor=#FFFFC0;" vertex="1" parent="1c1d494c118603dd-3">
          <mxGeometry x="18.119999999999997" y="250" width="95" height="40" as="geometry" />
        </mxCell>
        <mxCell id="q1Srg3AbugSp6zMwvo-e-104" value="" style="edgeStyle=orthogonalEdgeStyle;rounded=0;orthogonalLoop=1;jettySize=auto;html=1;" edge="1" parent="1c1d494c118603dd-3" source="q1Srg3AbugSp6zMwvo-e-100" target="q1Srg3AbugSp6zMwvo-e-103">
          <mxGeometry relative="1" as="geometry" />
        </mxCell>
        <mxCell id="q1Srg3AbugSp6zMwvo-e-100" value="Tạo thông báo" style="rounded=1;whiteSpace=wrap;html=1;strokeColor=#FF0000;fillColor=#FFFFC0;" vertex="1" parent="1c1d494c118603dd-3">
          <mxGeometry x="10" y="415" width="95" height="40" as="geometry" />
        </mxCell>
        <mxCell id="q1Srg3AbugSp6zMwvo-e-103" value="Gửi thông báo" style="rounded=1;whiteSpace=wrap;html=1;strokeColor=#FF0000;fillColor=#FFFFC0;" vertex="1" parent="1c1d494c118603dd-3">
          <mxGeometry x="145" y="415" width="95" height="40" as="geometry" />
        </mxCell>
        <mxCell id="q1Srg3AbugSp6zMwvo-e-150" value="" style="edgeStyle=orthogonalEdgeStyle;rounded=0;orthogonalLoop=1;jettySize=auto;html=1;" edge="1" parent="1c1d494c118603dd-3" source="q1Srg3AbugSp6zMwvo-e-144" target="q1Srg3AbugSp6zMwvo-e-149">
          <mxGeometry relative="1" as="geometry" />
        </mxCell>
        <mxCell id="q1Srg3AbugSp6zMwvo-e-144" value="Cập nhất kết quả xử lí" style="rounded=1;whiteSpace=wrap;html=1;strokeColor=#FF0000;fillColor=#FFFFC0;" vertex="1" parent="1c1d494c118603dd-3">
          <mxGeometry x="60" y="555" width="95" height="40" as="geometry" />
        </mxCell>
        <mxCell id="q1Srg3AbugSp6zMwvo-e-149" value="" style="ellipse;html=1;shape=endState;fillColor=#000000;strokeColor=#ff0000;" vertex="1" parent="1c1d494c118603dd-3">
          <mxGeometry x="94" y="643" width="27" height="25" as="geometry" />
        </mxCell>
        <mxCell id="q1Srg3AbugSp6zMwvo-e-66" value="" style="edgeStyle=orthogonalEdgeStyle;rounded=0;orthogonalLoop=1;jettySize=auto;html=1;" edge="1" parent="1c1d494c118603dd-3" source="q1Srg3AbugSp6zMwvo-e-61" target="q1Srg3AbugSp6zMwvo-e-65">
          <mxGeometry relative="1" as="geometry" />
        </mxCell>
        <mxCell id="q1Srg3AbugSp6zMwvo-e-61" value="&lt;table&gt;&lt;tbody&gt;&lt;tr&gt;&lt;td data-col-size=&quot;md&quot; data-end=&quot;1075&quot; data-start=&quot;1048&quot;&gt;&lt;/td&gt;&lt;/tr&gt;&lt;/tbody&gt;&lt;/table&gt;&lt;table&gt;&lt;tbody&gt;&lt;tr&gt;&lt;td data-end=&quot;1104&quot; data-start=&quot;1075&quot; data-col-size=&quot;md&quot;&gt;Hệ thống ghi nhận dữ liệu&lt;/td&gt;&lt;/tr&gt;&lt;/tbody&gt;&lt;/table&gt;" style="rounded=1;whiteSpace=wrap;html=1;strokeColor=#FF0000;fillColor=#FFFFC0;" vertex="1" parent="1c1d494c118603dd-3">
          <mxGeometry x="18.12" y="120" width="95" height="40" as="geometry" />
        </mxCell>
        <mxCell id="q1Srg3AbugSp6zMwvo-e-65" value="Kiểm tra xem có cần chứng cứ" style="rounded=1;whiteSpace=wrap;html=1;strokeColor=#FF0000;fillColor=#FFFFC0;" vertex="1" parent="1c1d494c118603dd-3">
          <mxGeometry x="145" y="120" width="95" height="40" as="geometry" />
        </mxCell>
        <mxCell id="q1Srg3AbugSp6zMwvo-e-102" style="edgeStyle=orthogonalEdgeStyle;rounded=0;orthogonalLoop=1;jettySize=auto;html=1;entryX=1;entryY=0.5;entryDx=0;entryDy=0;" edge="1" parent="1c1d494c118603dd-3" source="q1Srg3AbugSp6zMwvo-e-67" target="q1Srg3AbugSp6zMwvo-e-73">
          <mxGeometry relative="1" as="geometry">
            <Array as="points">
              <mxPoint x="160" y="220" />
              <mxPoint x="160" y="325" />
            </Array>
          </mxGeometry>
        </mxCell>
        <mxCell id="1c1d494c118603dd-4" value="Manager" style="swimlane;html=1;startSize=20;" parent="1c1d494c118603dd-1" vertex="1">
          <mxGeometry x="500" y="20" width="250" height="710" as="geometry" />
        </mxCell>
        <mxCell id="q1Srg3AbugSp6zMwvo-e-110" value="" style="edgeStyle=orthogonalEdgeStyle;rounded=0;orthogonalLoop=1;jettySize=auto;html=1;" edge="1" parent="1c1d494c118603dd-4" source="q1Srg3AbugSp6zMwvo-e-105" target="q1Srg3AbugSp6zMwvo-e-109">
          <mxGeometry relative="1" as="geometry" />
        </mxCell>
        <mxCell id="q1Srg3AbugSp6zMwvo-e-105" value="Tiếp nhận vấn đề" style="rounded=1;whiteSpace=wrap;html=1;strokeColor=#FF0000;fillColor=#FFFFC0;" vertex="1" parent="1c1d494c118603dd-4">
          <mxGeometry x="30" y="55" width="95" height="40" as="geometry" />
        </mxCell>
        <mxCell id="q1Srg3AbugSp6zMwvo-e-112" value="" style="edgeStyle=orthogonalEdgeStyle;rounded=0;orthogonalLoop=1;jettySize=auto;html=1;" edge="1" parent="1c1d494c118603dd-4" source="q1Srg3AbugSp6zMwvo-e-109" target="q1Srg3AbugSp6zMwvo-e-111">
          <mxGeometry relative="1" as="geometry">
            <Array as="points">
              <mxPoint x="203" y="135" />
              <mxPoint x="139" y="135" />
            </Array>
          </mxGeometry>
        </mxCell>
        <mxCell id="q1Srg3AbugSp6zMwvo-e-109" value="Kiểm tra phạm vi thông tin" style="rounded=1;whiteSpace=wrap;html=1;strokeColor=#FF0000;fillColor=#FFFFC0;" vertex="1" parent="1c1d494c118603dd-4">
          <mxGeometry x="155" y="55" width="95" height="40" as="geometry" />
        </mxCell>
        <mxCell id="q1Srg3AbugSp6zMwvo-e-114" style="edgeStyle=orthogonalEdgeStyle;rounded=0;orthogonalLoop=1;jettySize=auto;html=1;exitX=0;exitY=0.5;exitDx=0;exitDy=0;" edge="1" parent="1c1d494c118603dd-4" source="q1Srg3AbugSp6zMwvo-e-111" target="q1Srg3AbugSp6zMwvo-e-113">
          <mxGeometry relative="1" as="geometry" />
        </mxCell>
        <mxCell id="q1Srg3AbugSp6zMwvo-e-116" style="edgeStyle=orthogonalEdgeStyle;rounded=0;orthogonalLoop=1;jettySize=auto;html=1;entryX=0.5;entryY=0;entryDx=0;entryDy=0;" edge="1" parent="1c1d494c118603dd-4" source="q1Srg3AbugSp6zMwvo-e-111" target="q1Srg3AbugSp6zMwvo-e-115">
          <mxGeometry relative="1" as="geometry">
            <Array as="points">
              <mxPoint x="197" y="195" />
            </Array>
          </mxGeometry>
        </mxCell>
        <mxCell id="q1Srg3AbugSp6zMwvo-e-111" value="" style="rhombus;whiteSpace=wrap;html=1;rounded=1;" vertex="1" parent="1c1d494c118603dd-4">
          <mxGeometry x="127.5" y="185" width="22.5" height="20" as="geometry" />
        </mxCell>
        <mxCell id="q1Srg3AbugSp6zMwvo-e-118" value="" style="edgeStyle=orthogonalEdgeStyle;rounded=0;orthogonalLoop=1;jettySize=auto;html=1;entryX=0;entryY=0.5;entryDx=0;entryDy=0;" edge="1" parent="1c1d494c118603dd-4" source="q1Srg3AbugSp6zMwvo-e-113" target="q1Srg3AbugSp6zMwvo-e-140">
          <mxGeometry relative="1" as="geometry" />
        </mxCell>
        <mxCell id="q1Srg3AbugSp6zMwvo-e-113" value="Tự giải quyết vấn đề" style="rounded=1;whiteSpace=wrap;html=1;strokeColor=#FF0000;fillColor=#FFFFC0;" vertex="1" parent="1c1d494c118603dd-4">
          <mxGeometry x="20" y="265" width="95" height="40" as="geometry" />
        </mxCell>
        <mxCell id="q1Srg3AbugSp6zMwvo-e-115" value="Gửi cho nhà cung cấp" style="rounded=1;whiteSpace=wrap;html=1;strokeColor=#FF0000;fillColor=#FFFFC0;" vertex="1" parent="1c1d494c118603dd-4">
          <mxGeometry x="150" y="265" width="95" height="40" as="geometry" />
        </mxCell>
        <mxCell id="q1Srg3AbugSp6zMwvo-e-117" value="Tổng hợp kết quả" style="rounded=1;whiteSpace=wrap;html=1;strokeColor=#FF0000;fillColor=#FFFFC0;" vertex="1" parent="1c1d494c118603dd-4">
          <mxGeometry x="66.25" y="485" width="95" height="40" as="geometry" />
        </mxCell>
        <mxCell id="q1Srg3AbugSp6zMwvo-e-142" style="edgeStyle=orthogonalEdgeStyle;rounded=0;orthogonalLoop=1;jettySize=auto;html=1;entryX=1;entryY=0.5;entryDx=0;entryDy=0;" edge="1" parent="1c1d494c118603dd-4" source="q1Srg3AbugSp6zMwvo-e-125" target="q1Srg3AbugSp6zMwvo-e-140">
          <mxGeometry relative="1" as="geometry" />
        </mxCell>
        <mxCell id="q1Srg3AbugSp6zMwvo-e-125" value="Nhận kết quả" style="rounded=1;whiteSpace=wrap;html=1;strokeColor=#FF0000;fillColor=#FFFFC0;" vertex="1" parent="1c1d494c118603dd-4">
          <mxGeometry x="150" y="365" width="95" height="40" as="geometry" />
        </mxCell>
        <mxCell id="q1Srg3AbugSp6zMwvo-e-143" value="" style="edgeStyle=orthogonalEdgeStyle;rounded=0;orthogonalLoop=1;jettySize=auto;html=1;" edge="1" parent="1c1d494c118603dd-4" source="q1Srg3AbugSp6zMwvo-e-140" target="q1Srg3AbugSp6zMwvo-e-117">
          <mxGeometry relative="1" as="geometry" />
        </mxCell>
        <mxCell id="q1Srg3AbugSp6zMwvo-e-140" value="" style="rhombus;whiteSpace=wrap;html=1;rounded=1;" vertex="1" parent="1c1d494c118603dd-4">
          <mxGeometry x="102.5" y="375" width="22.5" height="20" as="geometry" />
        </mxCell>
        <mxCell id="q1Srg3AbugSp6zMwvo-e-1" value="Service Provider" style="swimlane;html=1;startSize=20;" vertex="1" parent="1c1d494c118603dd-1">
          <mxGeometry x="750" y="20" width="250" height="710" as="geometry" />
        </mxCell>
        <mxCell id="q1Srg3AbugSp6zMwvo-e-122" value="" style="edgeStyle=orthogonalEdgeStyle;rounded=0;orthogonalLoop=1;jettySize=auto;html=1;" edge="1" parent="q1Srg3AbugSp6zMwvo-e-1" source="q1Srg3AbugSp6zMwvo-e-119" target="q1Srg3AbugSp6zMwvo-e-121">
          <mxGeometry relative="1" as="geometry" />
        </mxCell>
        <mxCell id="q1Srg3AbugSp6zMwvo-e-119" value="Đọc báo cáo vấn đề." style="rounded=1;whiteSpace=wrap;html=1;strokeColor=#FF0000;fillColor=#FFFFC0;" vertex="1" parent="q1Srg3AbugSp6zMwvo-e-1">
          <mxGeometry x="20" y="155" width="95" height="40" as="geometry" />
        </mxCell>
        <mxCell id="q1Srg3AbugSp6zMwvo-e-124" value="" style="edgeStyle=orthogonalEdgeStyle;rounded=0;orthogonalLoop=1;jettySize=auto;html=1;" edge="1" parent="q1Srg3AbugSp6zMwvo-e-1" source="q1Srg3AbugSp6zMwvo-e-121" target="q1Srg3AbugSp6zMwvo-e-123">
          <mxGeometry relative="1" as="geometry" />
        </mxCell>
        <mxCell id="q1Srg3AbugSp6zMwvo-e-121" value="Giải quyết&lt;span style=&quot;color: rgba(0, 0, 0, 0); font-family: monospace; font-size: 0px; text-align: start; text-wrap-mode: nowrap;&quot;&gt;%3CmxGraphModel%3E%3Croot%3E%3CmxCell%20id%3D%220%22%2F%3E%3CmxCell%20id%3D%221%22%20parent%3D%220%22%2F%3E%3CmxCell%20id%3D%222%22%20value%3D%22Ti%E1%BA%BFp%20nh%E1%BA%ADn%20v%E1%BA%A5n%20%C4%91%E1%BB%81%22%20style%3D%22rounded%3D1%3BwhiteSpace%3Dwrap%3Bhtml%3D1%3B%22%20vertex%3D%221%22%20parent%3D%221%22%3E%3CmxGeometry%20x%3D%22590%22%20y%3D%2270%22%20width%3D%2295%22%20height%3D%2240%22%20as%3D%22geometry%22%2F%3E%3C%2FmxCell%3E%3C%2Froot%3E%3C%2FmxGraphModel%3E&lt;/span&gt;" style="rounded=1;whiteSpace=wrap;html=1;strokeColor=#FF0000;fillColor=#FFFFC0;" vertex="1" parent="q1Srg3AbugSp6zMwvo-e-1">
          <mxGeometry x="140" y="155" width="95" height="40" as="geometry" />
        </mxCell>
        <mxCell id="q1Srg3AbugSp6zMwvo-e-123" value="Trả kết quả&amp;nbsp;" style="rounded=1;whiteSpace=wrap;html=1;strokeColor=#FF0000;fillColor=#FFFFC0;" vertex="1" parent="q1Srg3AbugSp6zMwvo-e-1">
          <mxGeometry x="100" y="325" width="95" height="40" as="geometry" />
        </mxCell>
        <mxCell id="q1Srg3AbugSp6zMwvo-e-58" value="" style="edgeStyle=orthogonalEdgeStyle;rounded=0;orthogonalLoop=1;jettySize=auto;html=1;" edge="1" parent="1c1d494c118603dd-1" source="q1Srg3AbugSp6zMwvo-e-55" target="q1Srg3AbugSp6zMwvo-e-57">
          <mxGeometry relative="1" as="geometry" />
        </mxCell>
        <mxCell id="q1Srg3AbugSp6zMwvo-e-70" value="" style="edgeStyle=orthogonalEdgeStyle;rounded=0;orthogonalLoop=1;jettySize=auto;html=1;" edge="1" parent="1c1d494c118603dd-1" source="q1Srg3AbugSp6zMwvo-e-67" target="q1Srg3AbugSp6zMwvo-e-69">
          <mxGeometry relative="1" as="geometry" />
        </mxCell>
        <mxCell id="q1Srg3AbugSp6zMwvo-e-72" value="" style="edgeStyle=orthogonalEdgeStyle;rounded=0;orthogonalLoop=1;jettySize=auto;html=1;" edge="1" parent="1c1d494c118603dd-1" source="q1Srg3AbugSp6zMwvo-e-69" target="q1Srg3AbugSp6zMwvo-e-71">
          <mxGeometry relative="1" as="geometry">
            <Array as="points">
              <mxPoint x="108" y="280" />
            </Array>
          </mxGeometry>
        </mxCell>
        <mxCell id="q1Srg3AbugSp6zMwvo-e-74" value="" style="edgeStyle=orthogonalEdgeStyle;rounded=0;orthogonalLoop=1;jettySize=auto;html=1;" edge="1" parent="1c1d494c118603dd-1" source="q1Srg3AbugSp6zMwvo-e-71" target="q1Srg3AbugSp6zMwvo-e-73">
          <mxGeometry relative="1" as="geometry">
            <Array as="points">
              <mxPoint x="118" y="300" />
            </Array>
          </mxGeometry>
        </mxCell>
        <mxCell id="q1Srg3AbugSp6zMwvo-e-101" value="" style="edgeStyle=orthogonalEdgeStyle;rounded=0;orthogonalLoop=1;jettySize=auto;html=1;" edge="1" parent="1c1d494c118603dd-1" source="q1Srg3AbugSp6zMwvo-e-73" target="q1Srg3AbugSp6zMwvo-e-100">
          <mxGeometry relative="1" as="geometry">
            <Array as="points">
              <mxPoint x="307" y="360" />
            </Array>
          </mxGeometry>
        </mxCell>
        <mxCell id="q1Srg3AbugSp6zMwvo-e-106" style="edgeStyle=orthogonalEdgeStyle;rounded=0;orthogonalLoop=1;jettySize=auto;html=1;" edge="1" parent="1c1d494c118603dd-1" source="q1Srg3AbugSp6zMwvo-e-103" target="q1Srg3AbugSp6zMwvo-e-105">
          <mxGeometry relative="1" as="geometry">
            <Array as="points">
              <mxPoint x="443" y="320" />
              <mxPoint x="510" y="320" />
              <mxPoint x="510" y="95" />
            </Array>
          </mxGeometry>
        </mxCell>
        <mxCell id="q1Srg3AbugSp6zMwvo-e-120" value="" style="edgeStyle=orthogonalEdgeStyle;rounded=0;orthogonalLoop=1;jettySize=auto;html=1;" edge="1" parent="1c1d494c118603dd-1" source="q1Srg3AbugSp6zMwvo-e-115" target="q1Srg3AbugSp6zMwvo-e-119">
          <mxGeometry relative="1" as="geometry" />
        </mxCell>
        <mxCell id="q1Srg3AbugSp6zMwvo-e-126" value="" style="edgeStyle=orthogonalEdgeStyle;rounded=0;orthogonalLoop=1;jettySize=auto;html=1;" edge="1" parent="1c1d494c118603dd-1" source="q1Srg3AbugSp6zMwvo-e-123" target="q1Srg3AbugSp6zMwvo-e-125">
          <mxGeometry relative="1" as="geometry">
            <Array as="points">
              <mxPoint x="687" y="365" />
            </Array>
          </mxGeometry>
        </mxCell>
        <mxCell id="q1Srg3AbugSp6zMwvo-e-145" value="" style="edgeStyle=orthogonalEdgeStyle;rounded=0;orthogonalLoop=1;jettySize=auto;html=1;" edge="1" parent="1c1d494c118603dd-1" source="q1Srg3AbugSp6zMwvo-e-117" target="q1Srg3AbugSp6zMwvo-e-144">
          <mxGeometry relative="1" as="geometry" />
        </mxCell>
        <mxCell id="q1Srg3AbugSp6zMwvo-e-60" value="" style="edgeStyle=orthogonalEdgeStyle;rounded=0;orthogonalLoop=1;jettySize=auto;html=1;" edge="1" parent="1c1d494c118603dd-1" source="q1Srg3AbugSp6zMwvo-e-57" target="q1Srg3AbugSp6zMwvo-e-59">
          <mxGeometry relative="1" as="geometry">
            <Array as="points">
              <mxPoint x="347" y="100" />
              <mxPoint x="107" y="100" />
            </Array>
          </mxGeometry>
        </mxCell>
        <mxCell id="q1Srg3AbugSp6zMwvo-e-62" value="" style="edgeStyle=orthogonalEdgeStyle;rounded=0;orthogonalLoop=1;jettySize=auto;html=1;" edge="1" parent="1c1d494c118603dd-1" source="q1Srg3AbugSp6zMwvo-e-59" target="q1Srg3AbugSp6zMwvo-e-61">
          <mxGeometry relative="1" as="geometry" />
        </mxCell>
      </root>
    </mxGraphModel>
  </diagram>
</mxfile>
